<svg width="16" height="16" viewBox="0 0 16 16" fill="none" xmlns="http://www.w3.org/2000/svg">
<g clip-path="url(#clip0_134_816)">
<path d="M4.66602 12.0002C3.93268 12.0002 3.33935 12.6002 3.33935 13.3335C3.33935 14.0668 3.93268 14.6668 4.66602 14.6668C5.39935 14.6668 5.99935 14.0668 5.99935 13.3335C5.99935 12.6002 5.39935 12.0002 4.66602 12.0002ZM0.666016 1.3335V2.66683H1.99935L4.39935 7.72683L3.49935 9.36016C3.39268 9.54683 3.33268 9.76683 3.33268 10.0002C3.33268 10.7335 3.93268 11.3335 4.66602 11.3335H12.666V10.0002H4.94602C4.85268 10.0002 4.77935 9.92683 4.77935 9.8335L4.79935 9.7535L5.39935 8.66683H10.366C10.866 8.66683 11.306 8.3935 11.5327 7.98016L13.9193 3.6535C13.9727 3.56016 13.9993 3.44683 13.9993 3.3335C13.9993 2.96683 13.6993 2.66683 13.3327 2.66683H3.47268L2.84602 1.3335H0.666016ZM11.3327 12.0002C10.5993 12.0002 10.006 12.6002 10.006 13.3335C10.006 14.0668 10.5993 14.6668 11.3327 14.6668C12.066 14.6668 12.666 14.0668 12.666 13.3335C12.666 12.6002 12.066 12.0002 11.3327 12.0002Z" fill="#1D2734"/>
</g>
<defs>
<clipPath id="clip0_134_816">
<rect width="16" height="16" fill="white"/>
</clipPath>
</defs>
</svg>
