<svg width="20" height="20" viewBox="0 0 20 20" fill="none" xmlns="http://www.w3.org/2000/svg">
<g clip-path="url(#clip0_10859_3996)">
<path d="M5.83325 15C4.91658 15 4.17492 15.75 4.17492 16.6666C4.17492 17.5833 4.91658 18.3333 5.83325 18.3333C6.74992 18.3333 7.49992 17.5833 7.49992 16.6666C7.49992 15.75 6.74992 15 5.83325 15ZM0.833252 1.66663V3.33329H2.49992L5.49992 9.65829L4.37492 11.7C4.24159 11.9333 4.16659 12.2083 4.16659 12.5C4.16659 13.4166 4.91658 14.1666 5.83325 14.1666H15.8333V12.5H6.18325C6.06659 12.5 5.97492 12.4083 5.97492 12.2916L5.99992 12.1916L6.74992 10.8333H12.9583C13.5833 10.8333 14.1333 10.4916 14.4166 9.97496L17.3999 4.56663C17.4666 4.44996 17.4999 4.30829 17.4999 4.16663C17.4999 3.70829 17.1249 3.33329 16.6666 3.33329H4.34159L3.55825 1.66663H0.833252ZM14.1666 15C13.2499 15 12.5083 15.75 12.5083 16.6666C12.5083 17.5833 13.2499 18.3333 14.1666 18.3333C15.0833 18.3333 15.8333 17.5833 15.8333 16.6666C15.8333 15.75 15.0833 15 14.1666 15Z" fill="#1D2734"/>
</g>
<defs>
<clipPath id="clip0_10859_3996">
<rect width="20" height="20" fill="white"/>
</clipPath>
</defs>
</svg>
